# xmcd
#
# Track frame offsets: 
#        150
#        20004
#        39071
#        68730
#        85393
#        101539
#        121017
#        137414
#        164170
#        186348
#        207113
#        224631
#        246089
#        279270
#        312984
#
# Disc length: 4634 seconds
#
# Revision: 0
# Processed by: cddbd v1.5.2PL0 Copyright (c) Steve Scherf et al.
# Submitted via: ExactAudioCopy v0.99pb4
#
DISCID=d312180f
DTITLE=The SilverTongueDevils - The SilverTongueDevils
DYEAR=2008
DGENRE=Blues
TTITLE0=Roamin' Blues
TTITLE1=Train Back to Texas
TTITLE2=Keep on Shinin'
TTITLE3=Long Tall Texan
TTITLE4=Makins' of a Song
TTITLE5=You Can Take the Road
TTITLE6=Help Me Lord
TTITLE7=Mountain High
TTITLE8=Run Hide, Hide Run
TTITLE9=Long Haired Country Boy
TTITLE10=Light at the End of the Tunnel
TTITLE11=Long Black Veil
TTITLE12=Ain't Wastin' Time
TTITLE13=Love Light
TTITLE14=Machine Gun
EXTD=
EXTT0=
EXTT1=
EXTT2=
EXTT3=
EXTT4=
EXTT5=
EXTT6=
EXTT7=
EXTT8=
EXTT9=
EXTT10=
EXTT11=
EXTT12=
EXTT13=
EXTT14=
PLAYORDER=
